<?xml version="1.0" encoding="UTF-8" standalone="no"?>
<!-- Created with Inkscape (http://www.inkscape.org/) -->

<svg
   version="1.1"
   id="svg2"
   width="459.41333"
   height="255.03999"
   viewBox="0 0 459.41333 255.03999"
   sodipodi:docname="logotip_color.eps"
   xmlns:inkscape="http://www.inkscape.org/namespaces/inkscape"
   xmlns:sodipodi="http://sodipodi.sourceforge.net/DTD/sodipodi-0.dtd"
   xmlns="http://www.w3.org/2000/svg"
   xmlns:svg="http://www.w3.org/2000/svg">
  <defs
     id="defs6" />
  <sodipodi:namedview
     id="namedview4"
     pagecolor="#ffffff"
     bordercolor="#000000"
     borderopacity="0.25"
     inkscape:showpageshadow="2"
     inkscape:pageopacity="0.0"
     inkscape:pagecheckerboard="0"
     inkscape:deskcolor="#d1d1d1" />
  <g
     id="g8"
     inkscape:groupmode="layer"
     inkscape:label="ink_ext_XXXXXX"
     transform="matrix(1.3333333,0,0,-1.3333333,0,255.04)">
    <g
       id="g10"
       transform="scale(0.1)">
      <path
         d="m 890.625,1607.13 32.738,-14.99 c 12.887,-5.89 14.66,-3.82 22.735,10.36 l 106.362,205.33 c 5.02,11.59 3.36,23.22 -9.53,29.12 l -53.825,24.64 c -12.89,5.89 -22.39,-0.62 -26.691,-10.54 l -79.523,-219.62 c -5.739,-13.25 -0.832,-20.38 7.734,-24.3 z m 529.635,-235.59 -18.21,57.6 c -4.36,13.79 -15.44,16.7 -25.48,13.34 l -102.34,-41.62 c 50.89,-7.5 99.73,-18.17 146.51,-31.43 -0.17,0.69 -0.24,1.36 -0.48,2.11 z m -444.612,190.23 29.002,-21.66 c 11.42,-8.52 13.57,-6.87 24.33,5.27 l 145.56,178.1 c 7.25,10.27 7.98,22.01 -3.43,30.54 l -47.66,35.59 c -11.41,8.53 -22.05,4.18 -28.26,-4.61 L 973,1587.2 c -8.277,-11.74 -4.93,-19.76 2.648,-25.43 z m 304.062,83.7 -39.43,45.01 c -9.44,10.79 -20.71,8.8 -28.55,1.54 L 1052.2,1524.65 c -10.48,-9.7 -8.82,-18.26 -2.55,-25.43 l 23.99,-27.38 c 9.43,-10.79 11.89,-9.63 24.87,-0.04 l 178.38,143.08 c 9.16,8.49 12.25,19.81 2.82,30.59 z m 84.28,-129.38 -29.46,52.46 c -7.05,12.56 -18.48,13.03 -27.63,7.61 l -189.87,-129.62 c -12.23,-7.24 -12.33,-15.97 -7.64,-24.31 l 5.08,-9.05 c 29.23,-0.24 57.92,-1.48 86.01,-3.79 l 154.57,77.39 c 10.68,6.34 16,16.75 8.94,29.31 z m -640.693,95.37 c -237.906,0 -430.781,-198.32 -430.781,-442.94 0,-32.1 3.398,-63.37 9.707,-93.52 176.355,156.33 446.535,330.45 780.257,337.98 -77.14,119.58 -209.175,198.48 -359.183,198.48 z m -469.66,-532.24 c 14.031,1.53 17.578,9.43 16.601,19.03 l -3.754,36.66 c -1.468,14.42 -4.109,14.97 -20.089,15.07 L 20.2969,1142.05 C 8.02734,1140.73 -0.941406,1133.43 0.53125,1119 l 6.15625,-60.25 c 1.47656,-14.41 11.7305,-19.63 22.2344,-18.48 z M 18.1523,1191.51 245.84,1181.57 c 14.027,-1.51 19.109,5.48 20.082,15.07 l 3.746,36.66 c 1.473,14.42 -0.992,15.52 -16.602,19.04 l -222.7574,40.57 c -12.2773,1.32 -22.51954,-3.89 -23.9961,-18.31 l -6.15625,-60.24 c -1.46875,-14.44 7.5,-21.74 17.99605,-22.85 z M 274.59,1049.97 c -3.094,0.59 -7.34,-0.13 -14.024,-1.55 L 41.0078,992.305 C 29.2734,988.398 21.9727,979.367 26.3281,965.547 L 44.543,907.949 c 4.3593,-13.797 15.4336,-16.719 25.4765,-13.347 l 86.8555,35.32 c 31.078,34.953 70.57,76.378 117.715,120.048 z m 523.687,583.35 35.063,-7.66 c 13.797,-3.01 15.101,-0.6 20.133,15 L 916,1864.24 c 2.559,12.41 -1.414,23.43 -15.215,26.45 l -57.625,12.58 c -13.797,3.02 -21.789,-5.4 -23.98,-16.03 l -33.383,-231.81 c -2.926,-14.18 3.305,-20.11 12.48,-22.11 z M 38.2188,1341.76 258.918,1283.36 c 13.418,-4.47 19.809,1.28 22.699,10.44 l 11.074,35.06 c 4.356,13.81 2.161,15.4 -12.402,22.18 l -209.6796,87.3 c -11.7383,3.94 -22.8125,1.02 -27.168,-12.78 l -18.2031,-57.6 c -4.3633,-13.82 2.9414,-22.84 12.9805,-26.2 z m 457.3672,258.45 c 5.738,-13.25 14.172,-14.27 22.723,-10.35 l 32.746,15 c 12.89,5.88 12.57,8.65 7.734,24.3 l -77.207,218.65 c -5.012,11.6 -14.527,18.11 -27.418,12.21 l -53.809,-24.63 c -12.886,-5.91 -14.539,-17.54 -10.242,-27.48 z m 92.258,39.25 c 2.941,-14.18 10.984,-17 20.156,-14.98 l 35.055,7.66 c 13.797,3.01 14.035,5.76 12.472,22.12 l -31.308,230.37 c -2.555,12.42 -10.547,20.83 -24.344,17.82 l -57.617,-12.6 c -13.805,-3.01 -17.77,-14.05 -15.582,-24.67 z m 114.871,-0.3 h 35.836 c 14.105,0 14.894,2.64 16.679,18.96 l 15.961,232.04 c 0,12.69 -6.117,22.63 -20.222,22.63 H 692.07 c -14.109,0 -20.226,-9.94 -20.226,-20.79 l 14.191,-233.88 c 0,-14.5 7.297,-18.96 16.68,-18.96 z m -358.227,-171.5 c 10.492,-9.7 18.606,-7.12 24.875,0.05 l 23.985,27.38 c 9.433,10.79 8.07,13.15 -2.551,25.44 L 233.77,1687.99 c -9.165,8.49 -20.434,10.47 -29.883,-0.3 l -39.407,-45.02 c -9.429,-10.79 -6.351,-22.11 1.497,-29.37 z M 88.2227,1484.43 292.285,1380.14 c 12.219,-7.26 19.629,-2.99 24.32,5.37 l 17.915,31.91 c 7.062,12.56 5.23,14.59 -7.637,24.34 L 139.43,1571.99 c -10.684,6.35 -22.11,5.86 -29.16,-6.7 l -29.4497,-52.45 c -7.0625,-12.57 -1.7422,-22.98 7.4024,-28.41 z M 413.27,1542.1 c 8.289,-11.74 16.738,-10.93 24.332,-5.27 l 28.992,21.66 c 11.422,8.54 10.539,11.14 2.648,25.43 l -119.73,197.37 c -7.25,10.27 -17.875,14.61 -29.282,6.09 l -47.664,-35.6 c -11.414,-8.54 -10.683,-20.26 -4.472,-29.05 L 413.27,1542.1"
         style="fill:#f9dd06;fill-opacity:1;fill-rule:nonzero;stroke:none"
         id="path12" />
      <path
         d="M 1139.38,1332.8 C 516.461,1332.8 108.848,747.637 108.848,747.637 l 0.566,-0.008 c 0.168,-0.254 404.16,-580.781 1023.046,-585.09 v 174.504 c -440.409,12.117 -722.026,372.773 -749.28,409.07 29.394,35.684 185.183,214.141 435.664,310.367 -44.262,-67.906 -70.11,-149.566 -70.11,-237.445 0,-235.82 185.938,-427.043 415.286,-427.043 35.29,0 69.54,4.563 102.25,13.086 -12.2,29.914 -18.98,62.617 -18.98,96.934 0,141.867 115.01,256.875 256.89,256.875 24.1,0 47.4,-3.387 69.52,-9.598 3.64,22.715 5.6,45.984 5.6,69.746 0,76.082 -19.45,147.469 -53.36,209.345 240.2,-114.306 388.72,-297.071 388.72,-297.071 l 299.77,0.754 c 0,0 -390.61,600.737 -1075.05,600.737"
         style="fill:#2fab48;fill-opacity:1;fill-rule:nonzero;stroke:none"
         id="path14" />
      <path
         d="m 1469.24,573.242 h 90.34 c 24.88,0 47.52,-8.015 41.95,-35.379 -4.1,-19.777 -16.65,-30.265 -36.81,-35.207 v -0.41 c 19.33,-2.664 28.39,-18.301 25.5,-32.703 -7.4,-36.215 -37.44,-39.926 -67.29,-39.926 h -83.32 z m 28.39,-113.984 h 14.41 c 10.09,0 21.81,3.703 23.85,14.797 2.69,12.363 -7.18,14.629 -17.48,14.629 h -14.82 z m 11.94,59.035 h 13.79 c 9.66,0 20.78,2.898 23.03,13.789 2.27,10.691 -5.96,14.004 -15.85,14.004 h -15.01 l -5.96,-27.793"
         style="fill:#100f0d;fill-opacity:1;fill-rule:nonzero;stroke:none"
         id="path16" />
      <path
         d="m 1719.66,432.902 c -11.11,-2.871 -26.95,-5.754 -40.96,-5.754 -47.73,0 -80.88,25.098 -70.18,76.34 9.89,48.145 54.55,72.227 100.63,72.227 15.21,0 24.08,-1.848 38.28,-4.543 l -7.62,-37.852 c -8.65,2.871 -17.28,5.344 -26.54,5.344 -23.46,0 -43.83,-12.531 -48.55,-36.008 -5.16,-24.687 8.84,-37.246 31.67,-37.246 10.08,0 20.16,2.063 30.87,5.567 l -7.6,-38.075"
         style="fill:#100f0d;fill-opacity:1;fill-rule:nonzero;stroke:none"
         id="path18" />
      <path
         d="m 1762.64,573.242 h 124.52 l -7.21,-34.578 h -70.59 l -4.31,-20.371 h 67.48 l -6.99,-34.551 h -67.49 l -3.92,-19.543 h 72.03 l -7.2,-34.582 h -125.94 l 29.62,143.625"
         style="fill:#100f0d;fill-opacity:1;fill-rule:nonzero;stroke:none"
         id="path20" />
      <path
         d="m 1903.6,573.242 h 94.87 c 22.42,0 50.21,-10.691 42.59,-49.375 -7.81,-37.449 -35.17,-52.89 -64,-52.89 h -39.49 l -8.46,-41.36 h -55.14 z m 39.32,-68.926 h 12.13 c 13.16,0 27.15,2.473 30.45,18.516 3.09,15.227 -9.89,17.07 -23.24,17.07 h -11.94 l -7.4,-35.586"
         style="fill:#100f0d;fill-opacity:1;fill-rule:nonzero;stroke:none"
         id="path22" />
      <path
         d="m 2110.4,427.148 c -50.19,0 -74.27,25.293 -64.39,74.27 9.86,48.164 44.62,74.297 94.84,74.297 50.21,0 74.9,-26.133 65.04,-74.297 -9.88,-48.977 -45.28,-74.27 -95.49,-74.27 z m 7.21,34.582 c 21.82,0 27.36,24.258 30.66,39.688 2.87,13.387 6.78,39.715 -14.2,39.715 -20.37,0 -27.36,-26.328 -30.47,-39.715 -3.06,-15.43 -5.74,-39.688 14.01,-39.688"
         style="fill:#100f0d;fill-opacity:1;fill-rule:nonzero;stroke:none"
         id="path24" />
      <path
         d="m 2325.42,432.902 c -11.1,-2.871 -26.95,-5.754 -40.92,-5.754 -47.75,0 -80.87,25.098 -70.2,76.34 9.89,48.145 54.54,72.227 100.63,72.227 15.24,0 24.08,-1.848 38.28,-4.543 l -7.62,-37.852 c -8.65,2.871 -17.26,5.344 -26.54,5.344 -23.46,0 -43.83,-12.531 -48.55,-36.008 -5.14,-24.687 8.84,-37.246 31.68,-37.246 10.08,0 20.17,2.063 30.86,5.567 l -7.62,-38.075"
         style="fill:#100f0d;fill-opacity:1;fill-rule:nonzero;stroke:none"
         id="path26" />
      <path
         d="m 2458.78,432.902 c -11.11,-2.871 -26.96,-5.754 -40.96,-5.754 -47.73,0 -80.88,25.098 -70.18,76.34 9.89,48.145 54.56,72.227 100.63,72.227 15.21,0 24.08,-1.848 38.28,-4.543 l -7.62,-37.852 c -8.65,2.871 -17.28,5.344 -26.54,5.344 -23.47,0 -43.83,-12.531 -48.57,-36.008 -5.14,-24.687 8.86,-37.246 31.7,-37.246 10.07,0 20.16,2.063 30.86,5.567 l -7.6,-38.075"
         style="fill:#100f0d;fill-opacity:1;fill-rule:nonzero;stroke:none"
         id="path28" />
      <path
         d="m 2579.97,429.617 21.39,104.106 h -0.39 l -48.79,-104.106 h -81.08 l 29.63,143.625 h 47.95 l -20.78,-101.23 h 0.43 l 46.7,101.23 h 82.52 l -29.63,-143.625 h -47.95"
         style="fill:#100f0d;fill-opacity:1;fill-rule:nonzero;stroke:none"
         id="path30" />
      <path
         d="m 2755.26,429.617 21.41,104.106 h -0.39 l -48.77,-104.106 h -81.08 l 29.63,143.625 h 47.93 l -20.78,-101.23 h 0.41 l 46.72,101.23 h 82.52 l -29.63,-143.625 z m 51.25,190.754 c -6.38,-21.816 -29,-33.34 -49.37,-33.34 -20.59,0 -38.09,11.524 -35.41,33.34 h 24.7 c 1.25,-7.41 6.37,-10.711 15.43,-10.711 9.07,0 15.44,3.699 19.96,10.711 h 24.69"
         style="fill:#100f0d;fill-opacity:1;fill-rule:nonzero;stroke:none"
         id="path32" />
      <path
         d="m 2942.74,432.902 c -11.13,-2.871 -26.95,-5.754 -40.95,-5.754 -47.74,0 -80.88,25.098 -70.18,76.34 9.88,48.145 54.53,72.227 100.62,72.227 15.22,0 24.09,-1.848 38.27,-4.543 l -7.6,-37.852 c -8.65,2.871 -17.29,5.344 -26.54,5.344 -23.48,0 -43.83,-12.531 -48.58,-36.008 -5.14,-24.687 8.87,-37.246 31.7,-37.246 10.08,0 20.16,2.063 30.86,5.567 l -7.6,-38.075"
         style="fill:#100f0d;fill-opacity:1;fill-rule:nonzero;stroke:none"
         id="path34" />
      <path
         d="m 3040.68,516.855 h 0.38 l 46.12,56.387 h 62.73 l -62.34,-67.285 37.24,-76.34 h -65.84 l -23.24,60.91 h -0.41 l -12.56,-60.91 h -55.15 l 29.62,143.625 h 55.16 l -11.71,-56.387"
         style="fill:#100f0d;fill-opacity:1;fill-rule:nonzero;stroke:none"
         id="path36" />
      <path
         d="m 3196.43,427.148 c -50.21,0 -74.25,25.293 -64.41,74.27 9.91,48.164 44.67,74.297 94.88,74.297 50.22,0 74.9,-26.133 65.03,-74.297 -9.91,-48.977 -45.28,-74.27 -95.5,-74.27 z m 7.21,34.582 c 21.82,0 27.37,24.258 30.65,39.688 2.91,13.387 6.81,39.715 -14.2,39.715 -20.36,0 -27.37,-26.328 -30.43,-39.715 -3.11,-15.43 -5.78,-39.688 13.98,-39.688"
         style="fill:#100f0d;fill-opacity:1;fill-rule:nonzero;stroke:none"
         id="path38" />
      <path
         d="m 3321.14,573.242 h 124.47 l -7.18,-34.578 h -70.59 l -4.32,-20.371 h 67.5 l -7.01,-34.551 h -67.5 l -3.9,-19.543 h 72.03 l -7.21,-34.582 h -125.92 l 29.63,143.625"
         style="fill:#100f0d;fill-opacity:1;fill-rule:nonzero;stroke:none"
         id="path40" />
      <path
         d="m 1512.24,213.574 c -50.21,0 -74.28,25.293 -64.41,74.27 9.88,48.164 44.66,74.297 94.86,74.297 50.21,0 74.92,-26.133 65.02,-74.297 -9.89,-48.977 -45.26,-74.27 -95.47,-74.27 z m 7.2,34.571 c 21.81,0 27.37,24.265 30.65,39.699 2.88,13.386 6.79,39.715 -14.2,39.715 -20.36,0 -27.36,-26.329 -30.44,-39.715 -3.1,-15.434 -5.77,-39.699 13.99,-39.699"
         style="fill:#100f0d;fill-opacity:1;fill-rule:nonzero;stroke:none"
         id="path42" />
      <path
         d="m 1636.94,359.668 h 124.48 l -7.19,-34.578 h -70.59 l -4.32,-20.371 h 29.64 c 34.35,0 56.58,-8.02 49.59,-45.266 -6.59,-36.219 -38.07,-43.406 -67.92,-43.406 h -83.32 z m 28.4,-113.992 h 14.39 c 10.08,0 21.82,3.711 23.87,14.804 2.68,12.364 -7.21,14.629 -17.47,14.629 h -14.83 l -5.96,-29.433"
         style="fill:#100f0d;fill-opacity:1;fill-rule:nonzero;stroke:none"
         id="path44" />
      <path
         d="m 1767.39,216.047 29.63,143.621 h 51.86 l -20.79,-101.23 h 23.46 l 20.79,101.23 h 49.8 l -20.8,-101.23 h 23.47 l 20.78,101.23 h 51.84 l -20.78,-101.23 h 8.23 l -13.99,-67.079 h -53.09 l 5.14,24.688 h -155.55"
         style="fill:#100f0d;fill-opacity:1;fill-rule:nonzero;stroke:none"
         id="path46" />
      <path
         d="m 2018.02,359.668 h 124.49 l -7.21,-34.578 h -70.58 l -4.32,-20.371 h 67.5 l -6.99,-34.551 h -67.52 l -3.91,-19.543 h 72.03 l -7.21,-34.578 h -125.91 l 29.63,143.621"
         style="fill:#100f0d;fill-opacity:1;fill-rule:nonzero;stroke:none"
         id="path48" />
      <path
         d="m 2249.29,219.324 c -11.1,-2.871 -26.95,-5.75 -40.92,-5.75 -47.76,0 -80.88,25.098 -70.19,76.336 9.87,48.149 54.53,72.231 100.62,72.231 15.23,0 24.08,-1.848 38.28,-4.543 l -7.62,-37.852 c -8.65,2.871 -17.26,5.344 -26.54,5.344 -23.46,0 -43.83,-12.531 -48.56,-36.008 -5.13,-24.687 8.85,-37.246 31.69,-37.246 10.08,0 20.17,2.062 30.85,5.566 l -7.61,-38.078"
         style="fill:#100f0d;fill-opacity:1;fill-rule:nonzero;stroke:none"
         id="path50" />
      <path
         d="m 2439,317.277 h -48.56 l -20.78,-101.23 h -55.16 l 20.78,101.23 h -48.57 l 8.86,42.391 h 152.27 L 2439,317.277"
         style="fill:#100f0d;fill-opacity:1;fill-rule:nonzero;stroke:none"
         id="path52" />
      <path
         d="m 2460.18,359.668 h 90.34 c 24.9,0 47.53,-8.027 41.97,-35.383 -4.12,-19.773 -16.68,-30.262 -36.81,-35.203 v -0.41 c 19.33,-2.664 28.39,-18.301 25.5,-32.703 -7.4,-36.211 -37.44,-39.922 -67.3,-39.922 h -83.33 z m 28.41,-113.992 h 14.39 c 10.09,0 21.82,3.711 23.86,14.804 2.7,12.364 -7.18,14.629 -17.48,14.629 h -14.82 z m 11.93,59.043 h 13.78 c 9.67,0 20.79,2.898 23.05,13.789 2.25,10.691 -5.97,14.004 -15.86,14.004 h -15 l -5.97,-27.793"
         style="fill:#100f0d;fill-opacity:1;fill-rule:nonzero;stroke:none"
         id="path54" />
      <path
         d="m 2663.27,213.574 c -50.2,0 -74.26,25.293 -64.39,74.27 9.88,48.164 44.64,74.297 94.86,74.297 50.21,0 74.9,-26.133 65.02,-74.297 -9.87,-48.977 -45.28,-74.27 -95.49,-74.27 z m 7.21,34.571 c 21.82,0 27.36,24.265 30.66,39.699 2.89,13.386 6.8,39.715 -14.18,39.715 -20.39,0 -27.36,-26.329 -30.47,-39.715 -3.08,-15.434 -5.76,-39.699 13.99,-39.699"
         style="fill:#100f0d;fill-opacity:1;fill-rule:nonzero;stroke:none"
         id="path56" />
      <path
         d="M 1559.58,5.75391 C 1548.45,2.88281 1532.61,0 1518.62,0 c -47.74,0 -80.87,25.0977 -70.17,76.3398 9.87,48.1442 54.53,72.2262 100.62,72.2262 15.22,0 24.06,-1.847 38.27,-4.543 l -7.62,-37.851 c -8.63,2.871 -17.27,5.344 -26.53,5.344 -23.47,0 -43.83,-12.5316 -48.56,-36.0082 -5.15,-24.6875 8.84,-37.2461 31.69,-37.2461 10.07,0 20.15,2.0625 30.86,5.5664 l -7.6,-38.07419"
         style="fill:#100f0d;fill-opacity:1;fill-rule:nonzero;stroke:none"
         id="path58" />
      <path
         d="M 1650.91,49.7852 C 1645.14,21.3867 1625.79,0 1583.41,0 l -4.52,46.9063 c 14.4,0 22.02,7.4101 24.7,19.9687 l 16.25,79.219 h 133.75 L 1723.96,2.47266 H 1668.8 L 1689.58,103.699 H 1662 l -11.09,-53.9138"
         style="fill:#100f0d;fill-opacity:1;fill-rule:nonzero;stroke:none"
         id="path60" />
      <path
         d="m 1774.15,146.094 h 124.51 l -7.2,-34.578 h -70.59 l -4.32,-20.3715 h 67.48 l -6.99,-34.5507 h -67.48 l -3.93,-19.5508 h 72.04 l -7.21,-34.57034 h -125.94 l 29.63,143.62134"
         style="fill:#100f0d;fill-opacity:1;fill-rule:nonzero;stroke:none"
         id="path62" />
      <path
         d="m 2032.61,2.47266 h -55.14 l 20.78,101.22634 h -36.86 L 1940.61,2.47266 h -55.13 l 29.63,143.62134 h 147.12 L 2032.61,2.47266"
         style="fill:#100f0d;fill-opacity:1;fill-rule:nonzero;stroke:none"
         id="path64" />
      <path
         d="m 2138.15,146.094 -8.63,-41.356 h 35.8 c 28.81,0 49.81,-15.4411 41.98,-52.8903 -8.01,-38.6836 -40.32,-49.37504 -62.76,-49.37504 h -91.15 L 2083,146.094 Z M 2122.31,35.8125 c 13.38,0 26.98,1.8438 30.24,17.0703 3.1,16.043 -9.65,18.5156 -22.83,18.5156 h -8.44 l -7.19,-35.5859 z M 2298.25,146.094 2268.6,2.47266 h -55.12 l 29.63,143.62134 h 55.14"
         style="fill:#100f0d;fill-opacity:1;fill-rule:nonzero;stroke:none"
         id="path66" />
      <path
         d="m 2314.72,146.094 h 63.57 l 12.56,-42.395 31.9,42.395 h 58.02 l -62.56,-69.9612 36.64,-73.66014 h -64 L 2373.78,51.0156 2338.8,2.47266 h -59.91 l 66.68,73.66014 -30.85,69.9612"
         style="fill:#100f0d;fill-opacity:1;fill-rule:nonzero;stroke:none"
         id="path68" />
    </g>
  </g>
</svg>
