<svg width="24" height="13" viewBox="0 0 24 13" fill="none" xmlns="http://www.w3.org/2000/svg">
<g id="vk_red copy" clip-path="url(#clip0_799_1044)">
<g id="Page-1">
<g id="UX-Live">
<g id="Social-BW">
<path id="vk_red-copy" fill-rule="evenodd" clip-rule="evenodd" d="M11.7425 12.9453H13.1772C13.1772 12.9453 13.6102 12.9003 13.8314 12.6742C14.0357 12.4658 14.0289 12.0755 14.0289 12.0755C14.0289 12.0755 14.0009 10.2483 14.8941 9.97871C15.7746 9.71319 16.9059 11.7448 18.1041 12.5261C19.0109 13.1175 19.6998 12.988 19.6998 12.988L22.9048 12.9453C22.9048 12.9453 24.581 12.8472 23.7861 11.596C23.7208 11.4938 23.3225 10.6699 21.4031 8.97776C19.393 7.2068 19.6625 7.49324 22.0836 4.42925C23.5573 2.56414 24.1471 1.4248 23.9623 0.937205C23.7869 0.472135 22.7031 0.59524 22.7031 0.59524L19.0939 0.61616C19.0939 0.61616 18.8261 0.581562 18.6278 0.694209C18.4346 0.804441 18.31 1.06192 18.31 1.06192C18.31 1.06192 17.738 2.50541 16.9771 3.73326C15.3703 6.32413 14.7271 6.46091 14.4644 6.29999C13.8535 5.92504 14.006 4.79455 14.006 3.99073C14.006 1.47952 14.4077 0.432711 13.2255 0.161555C12.8332 0.0722421 12.5442 0.0126943 11.5408 0.00303891C10.2536 -0.00983499 9.16383 0.00626385 8.54691 0.293513C8.13591 0.484207 7.81897 0.909847 8.01219 0.933985C8.25031 0.964561 8.79097 1.07238 9.07739 1.44251C9.44687 1.92045 9.43416 2.99301 9.43416 2.99301C9.43416 2.99301 9.64686 5.94837 8.93757 6.31608C8.45115 6.56712 7.78423 6.05377 6.35124 3.70268C5.61738 2.49897 5.06316 1.16813 5.06316 1.16813C5.06316 1.16813 4.95639 0.919504 4.76572 0.785937C4.53437 0.625013 4.2115 0.573519 4.2115 0.573519L0.781993 0.59524C0.781993 0.59524 0.267609 0.608918 0.0786339 0.821337C-0.0900028 1.01042 0.0650752 1.40147 0.0650752 1.40147C0.0650752 1.40147 2.7497 7.3653 5.7894 10.3706C8.57742 13.1264 11.7425 12.9453 11.7425 12.9453Z" fill="black"/>
</g>
</g>
</g>
</g>
<defs>
<clipPath id="clip0_799_1044">
<rect width="24" height="13" fill="white"/>
</clipPath>
</defs>
</svg>
